<mxfile host="app.diagrams.net" modified="2023-05-28T16:27:17.225Z" agent="Mozilla/5.0 (Windows NT 10.0; Win64; x64) AppleWebKit/537.36 (KHTML, like Gecko) Chrome/113.0.0.0 Safari/537.36 Edg/113.0.1774.57" etag="kfRjInByHwnH_omEyF6d" version="21.3.0" type="device">
  <diagram id="C5RBs43oDa-KdzZeNtuy" name="Page-1">
    <mxGraphModel dx="996" dy="1806" grid="1" gridSize="15" guides="1" tooltips="1" connect="1" arrows="1" fold="1" page="1" pageScale="1" pageWidth="827" pageHeight="1169" math="0" shadow="0">
      <root>
        <mxCell id="WIyWlLk6GJQsqaUBKTNV-0" />
        <mxCell id="WIyWlLk6GJQsqaUBKTNV-1" parent="WIyWlLk6GJQsqaUBKTNV-0" />
        <mxCell id="kRAMLSBkpa-CDFbZl4_m-5" style="edgeStyle=orthogonalEdgeStyle;rounded=0;orthogonalLoop=1;jettySize=auto;html=1;exitX=1;exitY=0.5;exitDx=0;exitDy=0;entryX=0;entryY=0.5;entryDx=0;entryDy=0;" edge="1" parent="WIyWlLk6GJQsqaUBKTNV-1" source="WIyWlLk6GJQsqaUBKTNV-6" target="WIyWlLk6GJQsqaUBKTNV-7">
          <mxGeometry relative="1" as="geometry" />
        </mxCell>
        <mxCell id="kRAMLSBkpa-CDFbZl4_m-11" value="" style="edgeStyle=orthogonalEdgeStyle;rounded=0;orthogonalLoop=1;jettySize=auto;html=1;" edge="1" parent="WIyWlLk6GJQsqaUBKTNV-1" source="WIyWlLk6GJQsqaUBKTNV-6" target="kRAMLSBkpa-CDFbZl4_m-10">
          <mxGeometry relative="1" as="geometry" />
        </mxCell>
        <mxCell id="WIyWlLk6GJQsqaUBKTNV-6" value="&lt;font style=&quot;font-size: 14px;&quot;&gt;interruption?&lt;/font&gt;" style="rhombus;whiteSpace=wrap;html=1;shadow=0;fontFamily=Helvetica;fontSize=12;align=center;strokeWidth=1;spacing=6;spacingTop=-4;fontStyle=0" parent="WIyWlLk6GJQsqaUBKTNV-1" vertex="1">
          <mxGeometry x="350" y="170" width="100" height="80" as="geometry" />
        </mxCell>
        <mxCell id="WIyWlLk6GJQsqaUBKTNV-7" value="&lt;span style=&quot;font-size: 14px;&quot;&gt;System turns off/resets&lt;/span&gt;" style="rounded=1;whiteSpace=wrap;html=1;fontSize=12;glass=0;strokeWidth=1;shadow=0;" parent="WIyWlLk6GJQsqaUBKTNV-1" vertex="1">
          <mxGeometry x="555" y="190" width="120" height="40" as="geometry" />
        </mxCell>
        <mxCell id="kRAMLSBkpa-CDFbZl4_m-18" style="edgeStyle=orthogonalEdgeStyle;rounded=0;orthogonalLoop=1;jettySize=auto;html=1;exitX=0.5;exitY=1;exitDx=0;exitDy=0;entryX=0.447;entryY=0.04;entryDx=0;entryDy=0;entryPerimeter=0;" edge="1" parent="WIyWlLk6GJQsqaUBKTNV-1">
          <mxGeometry relative="1" as="geometry">
            <mxPoint x="400" y="14" as="sourcePoint" />
            <mxPoint x="398.6400000000001" y="61.40000000000009" as="targetPoint" />
            <Array as="points">
              <mxPoint x="400" y="15" />
              <mxPoint x="399" y="15" />
            </Array>
          </mxGeometry>
        </mxCell>
        <mxCell id="kRAMLSBkpa-CDFbZl4_m-0" value="&lt;font style=&quot;font-size: 15px;&quot;&gt;Start&lt;/font&gt;" style="ellipse;whiteSpace=wrap;html=1;rounded=1;glass=0;strokeWidth=1;shadow=0;" vertex="1" parent="WIyWlLk6GJQsqaUBKTNV-1">
          <mxGeometry x="345" y="-30" width="105" height="45" as="geometry" />
        </mxCell>
        <mxCell id="kRAMLSBkpa-CDFbZl4_m-6" value="&lt;span style=&quot;font-size: 14px;&quot;&gt;Yes&lt;/span&gt;" style="text;html=1;align=center;verticalAlign=middle;resizable=0;points=[];autosize=1;strokeColor=none;fillColor=none;" vertex="1" parent="WIyWlLk6GJQsqaUBKTNV-1">
          <mxGeometry x="455" y="178" width="60" height="30" as="geometry" />
        </mxCell>
        <mxCell id="kRAMLSBkpa-CDFbZl4_m-21" style="edgeStyle=orthogonalEdgeStyle;rounded=0;orthogonalLoop=1;jettySize=auto;html=1;exitX=0.5;exitY=1;exitDx=0;exitDy=0;entryX=0.5;entryY=0;entryDx=0;entryDy=0;" edge="1" parent="WIyWlLk6GJQsqaUBKTNV-1" source="kRAMLSBkpa-CDFbZl4_m-10" target="kRAMLSBkpa-CDFbZl4_m-20">
          <mxGeometry relative="1" as="geometry" />
        </mxCell>
        <mxCell id="kRAMLSBkpa-CDFbZl4_m-10" value="&lt;font style=&quot;font-size: 14px;&quot;&gt;Show amber light for 15 seconds&lt;/font&gt;" style="whiteSpace=wrap;html=1;shadow=0;strokeWidth=1;spacing=6;spacingTop=-4;" vertex="1" parent="WIyWlLk6GJQsqaUBKTNV-1">
          <mxGeometry x="340" y="300" width="120" height="60" as="geometry" />
        </mxCell>
        <mxCell id="kRAMLSBkpa-CDFbZl4_m-14" style="edgeStyle=orthogonalEdgeStyle;rounded=0;orthogonalLoop=1;jettySize=auto;html=1;exitX=0.5;exitY=1;exitDx=0;exitDy=0;entryX=0.5;entryY=0;entryDx=0;entryDy=0;" edge="1" parent="WIyWlLk6GJQsqaUBKTNV-1" source="kRAMLSBkpa-CDFbZl4_m-12" target="WIyWlLk6GJQsqaUBKTNV-6">
          <mxGeometry relative="1" as="geometry" />
        </mxCell>
        <mxCell id="kRAMLSBkpa-CDFbZl4_m-12" value="&lt;font style=&quot;font-size: 14px;&quot;&gt;Show green light for 40 seconds&lt;/font&gt;" style="rounded=0;whiteSpace=wrap;html=1;" vertex="1" parent="WIyWlLk6GJQsqaUBKTNV-1">
          <mxGeometry x="340" y="60" width="120" height="60" as="geometry" />
        </mxCell>
        <mxCell id="kRAMLSBkpa-CDFbZl4_m-13" value="&lt;span style=&quot;font-size: 14px;&quot;&gt;No&lt;/span&gt;" style="text;html=1;align=center;verticalAlign=middle;resizable=0;points=[];autosize=1;strokeColor=none;fillColor=none;" vertex="1" parent="WIyWlLk6GJQsqaUBKTNV-1">
          <mxGeometry x="388" y="253" width="45" height="30" as="geometry" />
        </mxCell>
        <mxCell id="kRAMLSBkpa-CDFbZl4_m-25" style="edgeStyle=orthogonalEdgeStyle;rounded=0;orthogonalLoop=1;jettySize=auto;html=1;exitX=1;exitY=0.5;exitDx=0;exitDy=0;entryX=0;entryY=0.5;entryDx=0;entryDy=0;" edge="1" parent="WIyWlLk6GJQsqaUBKTNV-1" source="kRAMLSBkpa-CDFbZl4_m-20" target="kRAMLSBkpa-CDFbZl4_m-22">
          <mxGeometry relative="1" as="geometry" />
        </mxCell>
        <mxCell id="kRAMLSBkpa-CDFbZl4_m-28" style="edgeStyle=orthogonalEdgeStyle;rounded=0;orthogonalLoop=1;jettySize=auto;html=1;exitX=0.5;exitY=1;exitDx=0;exitDy=0;entryX=0.453;entryY=0.032;entryDx=0;entryDy=0;entryPerimeter=0;" edge="1" parent="WIyWlLk6GJQsqaUBKTNV-1" source="kRAMLSBkpa-CDFbZl4_m-20" target="kRAMLSBkpa-CDFbZl4_m-26">
          <mxGeometry relative="1" as="geometry" />
        </mxCell>
        <mxCell id="kRAMLSBkpa-CDFbZl4_m-20" value="&lt;font style=&quot;font-size: 14px;&quot;&gt;interruption?&lt;/font&gt;" style="rhombus;whiteSpace=wrap;html=1;shadow=0;fontFamily=Helvetica;fontSize=12;align=center;strokeWidth=1;spacing=6;spacingTop=-4;fontStyle=0" vertex="1" parent="WIyWlLk6GJQsqaUBKTNV-1">
          <mxGeometry x="350" y="405" width="100" height="80" as="geometry" />
        </mxCell>
        <mxCell id="kRAMLSBkpa-CDFbZl4_m-22" value="&lt;span style=&quot;font-size: 14px;&quot;&gt;System turns off/resets&lt;/span&gt;" style="rounded=1;whiteSpace=wrap;html=1;fontSize=12;glass=0;strokeWidth=1;shadow=0;" vertex="1" parent="WIyWlLk6GJQsqaUBKTNV-1">
          <mxGeometry x="555" y="425" width="120" height="40" as="geometry" />
        </mxCell>
        <mxCell id="kRAMLSBkpa-CDFbZl4_m-23" value="&lt;span style=&quot;font-size: 14px;&quot;&gt;Yes&lt;/span&gt;" style="text;html=1;align=center;verticalAlign=middle;resizable=0;points=[];autosize=1;strokeColor=none;fillColor=none;" vertex="1" parent="WIyWlLk6GJQsqaUBKTNV-1">
          <mxGeometry x="465" y="420" width="60" height="30" as="geometry" />
        </mxCell>
        <mxCell id="kRAMLSBkpa-CDFbZl4_m-36" style="edgeStyle=orthogonalEdgeStyle;rounded=0;orthogonalLoop=1;jettySize=auto;html=1;exitX=0.5;exitY=1;exitDx=0;exitDy=0;entryX=0.5;entryY=0;entryDx=0;entryDy=0;" edge="1" parent="WIyWlLk6GJQsqaUBKTNV-1" source="kRAMLSBkpa-CDFbZl4_m-26" target="kRAMLSBkpa-CDFbZl4_m-33">
          <mxGeometry relative="1" as="geometry">
            <Array as="points">
              <mxPoint x="400" y="600" />
            </Array>
          </mxGeometry>
        </mxCell>
        <mxCell id="kRAMLSBkpa-CDFbZl4_m-26" value="&lt;font style=&quot;font-size: 14px;&quot;&gt;Show red light for 55 seconds&lt;/font&gt;" style="whiteSpace=wrap;html=1;shadow=0;strokeWidth=1;spacing=6;spacingTop=-4;" vertex="1" parent="WIyWlLk6GJQsqaUBKTNV-1">
          <mxGeometry x="345" y="540" width="120" height="60" as="geometry" />
        </mxCell>
        <mxCell id="kRAMLSBkpa-CDFbZl4_m-32" value="&lt;span style=&quot;font-size: 14px;&quot;&gt;No&lt;/span&gt;" style="text;html=1;align=center;verticalAlign=middle;resizable=0;points=[];autosize=1;strokeColor=none;fillColor=none;" vertex="1" parent="WIyWlLk6GJQsqaUBKTNV-1">
          <mxGeometry x="405" y="495" width="45" height="30" as="geometry" />
        </mxCell>
        <mxCell id="kRAMLSBkpa-CDFbZl4_m-40" style="edgeStyle=orthogonalEdgeStyle;rounded=0;orthogonalLoop=1;jettySize=auto;html=1;exitX=1;exitY=0.5;exitDx=0;exitDy=0;entryX=0;entryY=0.5;entryDx=0;entryDy=0;" edge="1" parent="WIyWlLk6GJQsqaUBKTNV-1" source="kRAMLSBkpa-CDFbZl4_m-33" target="kRAMLSBkpa-CDFbZl4_m-39">
          <mxGeometry relative="1" as="geometry" />
        </mxCell>
        <mxCell id="kRAMLSBkpa-CDFbZl4_m-42" value="" style="edgeStyle=orthogonalEdgeStyle;rounded=0;orthogonalLoop=1;jettySize=auto;html=1;" edge="1" parent="WIyWlLk6GJQsqaUBKTNV-1" source="kRAMLSBkpa-CDFbZl4_m-33" target="kRAMLSBkpa-CDFbZl4_m-41">
          <mxGeometry relative="1" as="geometry" />
        </mxCell>
        <mxCell id="kRAMLSBkpa-CDFbZl4_m-33" value="&lt;font style=&quot;font-size: 14px;&quot;&gt;interruption?&lt;/font&gt;" style="rhombus;whiteSpace=wrap;html=1;shadow=0;fontFamily=Helvetica;fontSize=12;align=center;strokeWidth=1;spacing=6;spacingTop=-4;fontStyle=0" vertex="1" parent="WIyWlLk6GJQsqaUBKTNV-1">
          <mxGeometry x="350" y="660" width="100" height="80" as="geometry" />
        </mxCell>
        <mxCell id="kRAMLSBkpa-CDFbZl4_m-38" value="&lt;span style=&quot;font-size: 14px;&quot;&gt;Yes&lt;/span&gt;" style="text;html=1;align=center;verticalAlign=middle;resizable=0;points=[];autosize=1;strokeColor=none;fillColor=none;" vertex="1" parent="WIyWlLk6GJQsqaUBKTNV-1">
          <mxGeometry x="465" y="660" width="60" height="30" as="geometry" />
        </mxCell>
        <mxCell id="kRAMLSBkpa-CDFbZl4_m-39" value="&lt;span style=&quot;font-size: 14px;&quot;&gt;System turns off/resets&lt;/span&gt;" style="rounded=1;whiteSpace=wrap;html=1;fontSize=12;glass=0;strokeWidth=1;shadow=0;" vertex="1" parent="WIyWlLk6GJQsqaUBKTNV-1">
          <mxGeometry x="555" y="680" width="120" height="40" as="geometry" />
        </mxCell>
        <mxCell id="kRAMLSBkpa-CDFbZl4_m-41" value="&lt;font style=&quot;font-size: 14px;&quot;&gt;End&lt;/font&gt;" style="ellipse;whiteSpace=wrap;html=1;shadow=0;strokeWidth=1;spacing=6;spacingTop=-4;fontStyle=0;" vertex="1" parent="WIyWlLk6GJQsqaUBKTNV-1">
          <mxGeometry x="347.5" y="795" width="105" height="50" as="geometry" />
        </mxCell>
        <mxCell id="kRAMLSBkpa-CDFbZl4_m-43" value="&lt;span style=&quot;font-size: 14px;&quot;&gt;No&lt;/span&gt;" style="text;html=1;align=center;verticalAlign=middle;resizable=0;points=[];autosize=1;strokeColor=none;fillColor=none;" vertex="1" parent="WIyWlLk6GJQsqaUBKTNV-1">
          <mxGeometry x="405" y="750" width="45" height="30" as="geometry" />
        </mxCell>
      </root>
    </mxGraphModel>
  </diagram>
</mxfile>
